<svg width="40" height="40" viewBox="0 0 40 40" fill="none" xmlns="http://www.w3.org/2000/svg">
  <rect width="40" height="40" rx="8" fill="#FF007A"/>
  <path d="M12.5 20C12.5 15.8579 15.8579 12.5 20 12.5C24.1421 12.5 27.5 15.8579 27.5 20C27.5 24.1421 24.1421 27.5 20 27.5C15.8579 27.5 12.5 24.1421 12.5 20Z" fill="white"/>
  <path d="M20 5C11.7157 5 5 11.7157 5 20C5 28.2843 11.7157 35 20 35C28.2843 35 35 28.2843 35 20C35 11.7157 28.2843 5 20 5ZM20 32.5C13.0964 32.5 7.5 26.9036 7.5 20C7.5 13.0964 13.0964 7.5 20 7.5C26.9036 7.5 32.5 13.0964 32.5 20C32.5 26.9036 26.9036 32.5 20 32.5Z" fill="white"/>
</svg>



